<mxfile host="Electron" modified="2023-09-27T09:58:38.069Z" agent="Mozilla/5.0 (Macintosh; Intel Mac OS X 10_15_7) AppleWebKit/537.36 (KHTML, like Gecko) draw.io/21.6.1 Chrome/112.0.5615.204 Electron/24.6.1 Safari/537.36" etag="REPhyzcT6uRZ82YaCRSG" version="21.6.1" type="device">
  <diagram name="Page-1" id="EJtZ2fVsDIEfXiNC_Rqh">
    <mxGraphModel dx="1035" dy="658" grid="1" gridSize="10" guides="1" tooltips="1" connect="1" arrows="1" fold="1" page="1" pageScale="1" pageWidth="827" pageHeight="1169" math="0" shadow="0">
      <root>
        <mxCell id="0" />
        <mxCell id="1" parent="0" />
        <mxCell id="7rkVe7Uq90dmdIaCh3Kc-7" value="Customer&lt;br style=&quot;font-size: 14px;&quot;&gt;(buyer)" style="verticalLabelPosition=bottom;html=1;verticalAlign=top;align=center;strokeColor=none;fillColor=#00BEF2;shape=mxgraph.azure.user;fontSize=14;" vertex="1" parent="1">
          <mxGeometry x="408.25" y="90" width="47.5" height="50" as="geometry" />
        </mxCell>
        <mxCell id="7rkVe7Uq90dmdIaCh3Kc-12" value="SNS" style="outlineConnect=0;dashed=0;verticalLabelPosition=bottom;verticalAlign=top;align=center;html=1;shape=mxgraph.aws3.sns;fillColor=#D9A741;gradientColor=none;fontSize=14;" vertex="1" parent="1">
          <mxGeometry x="670" y="300" width="76.5" height="76.5" as="geometry" />
        </mxCell>
        <mxCell id="7rkVe7Uq90dmdIaCh3Kc-13" value="sales-topic" style="outlineConnect=0;dashed=0;verticalLabelPosition=bottom;verticalAlign=top;align=center;html=1;shape=mxgraph.aws3.topic_2;fillColor=#D9A741;gradientColor=none;fontSize=14;" vertex="1" parent="1">
          <mxGeometry x="673.25" y="400" width="70" height="20" as="geometry" />
        </mxCell>
        <mxCell id="7rkVe7Uq90dmdIaCh3Kc-15" value="car-sales-producer" style="rounded=1;whiteSpace=wrap;html=1;strokeWidth=3;strokeColor=#66CC00;fontSize=14;" vertex="1" parent="1">
          <mxGeometry x="354" y="325" width="156" height="70" as="geometry" />
        </mxCell>
        <mxCell id="7rkVe7Uq90dmdIaCh3Kc-14" value="" style="shape=image;verticalLabelPosition=bottom;verticalAlign=top;imageAspect=0;image=data:image/png,iVBORw0KGgoAAAANSUhEUgAAASwAAAEsCAMAAABOo35HAAAAM1BMVEVHcExtsz9tsz9tsz9tsz9tsz9tsz9tsz9tsz9tsz9tsz9tsz9tsz9tsz9tsz9tsz9tsz9pe8ICAAAAEHRSTlMA3yCfEIBgv0DvzzCPr3BQ96WBdgAACsFJREFUeNrtndm25KYSRCUxCo3//7V237O87LYLFZCRkOgST/3QR1IFkLmZp2loaGhoaGhoaGhoaGhoaGhoaGhoaGhoaGhoaJr8aQ5XXYc5fWdGLae7G8qdSy9OaRvu5gpW92CVWW8RWo14u6RY9WOX7KA+36I0yw32er/FaRfaFrdwC1TYJHp1rbdIrZc8r+wtVnZ41a9bor0S5pa/hUtQlNerdLNWOQThbvE6xEDD3YGkAMTcg1mzkL7z3YVE9KqXtQ+zVgkDguruRGogVob8wIaMofnRz+mn16Pnnsya9cCGTvChF2wQgQ/q7kxqYEMX+OD6M8sNbJCPD31hQ2N8MHeXMgMbhOODujuVGtggGh9cv2a5gQ1y8aFPbGiED+buWmZgg1B8UHfnUgMbROKD698s9w5sOOyvgLJZ5hKxL8AG93fo9ax2VcIHTmw46wGK6R0bbMUGXwUfVK169Uuc2xBU19jgKq/98j1jg6+ceV3H2BCqLyu0/WLD+fGNnFGLGR9M9RDCurrX9IoNt67fD2XFB9bRhhaddtUlNjQyixEf3PvMch1iQzOzuPCBjA2zczPSrHAYRa7sTPhAw4b551SK5ZwxZq3mJ5NpSyxDIw8bzu+mZ5n1j3EvYimy4AMFG+bfNkduK9ms31O+J5WjkoUNTqc8K+O9/85hmnRKgpeEDSot/KWb9d+Woyn13gnChg/J+eM+4XSzDLjDbcVgg00dS0g3awEXJxgfihPO6pMtSDYrwCu/EYENa+yMAIpZBzxUQPFBob0imWXwgVUJwIb42RMUs3aGNOSbY8NDlqGY5RiStmuNDTavrib/z5UjE9m22LA/PJOGDhdDeAXhQ2FhPR1oQoTSxzYTWuJDITYEnVmxcvqGV25B1MIHBYaGaBDMMOvx6Vs7fCjEhis/YeS8/9Gtsxk+OHhwhwz+Reavf3Q0wgeLTi3agcbgFT5s2SbYEG8kD4eZ5oaBhxRyNcEHA87C24qc3dnQDdHUx4a5yKuCecN4mC9siCR8UNis8uhVySRr3K3CLpqqjQ1HmVdFM9Jxtwo7/74uNkSr8hevyqbvozG5EE1dXWwwhV4VrnWI5sTCHrWtiQ2x41O/T+0VhoID26ctxIcybDiLk3lp3NyxoyWmPTYkfHlxkrna44NCNvmUvFr8l7GfV1i1VC1siESspPBX/h2RFKarjT44ZINP6n0QCu2EJkRXBxtIy7MJZkUa4lJn8qJwtEFRHkYJBwcU4zPxoTA2bpSHkWKnh07iGX5siKzYSH0YyawIstSYvCiMjCfpYbSsbNOnkbD4ULq2QZOiLO1bZuhMTwY+FMbFg1ZLiQX3uWqVLsJzzNjw+XPT0zfRrBnaDlPxoXhJpKblVWpIuKDtMBEfSheiBGI+oprloO0wDR+Kl0SexCZNTjYLclVNGj4UP30jzkmRzTLAKcQ0fCheErlSO/7k75mRQw9J+FC8seOgJlZ64W3QHxRbQg5YlPk5ZB1Vzdqh8PAVHwj3yXlqG6CbNWOD1re76whb98gfCoihC3BQ6ys+EB4cyE0AYJYFjjzEaYS2+CSaaENlsxSwp/s0qEjChliNvSubNYMj/BM+UPaDXmTzEQWosXH4AR8sugjO6mZ5cHuJ4wNpzz+9ASDMOpEDD0/j1bQDQeihFWHWTo6ciVWLtIPd0Z+IMMvhzQoTvLYCvpLNrEBza0MnDSlm3WjQikBRgD9xe4dZATruEzPLv8OsD/Dm32HWhkb4j/Bm3mGWh0fjT79NDbPSu+dumJWe6dubtfVj1t3cLIsYu+UI8LdAsxRiPJIDHaqYlQmlH6cHlvuFZiF6sAYwP/5/Y9aH/XAe8RmhC7Nyv/I/O7yypzEZhmg+meXQDyx55r/c2rLrxM5hlqtiVj7g/Hbq3ZU/44cfVv5oFvWo9w00UO3+mia6SooPP2HxsbpSMdfDynR1xuyubB5Zk+eYkrK0hz8REVozhZ9k/VwPiIN/+JlzOR+h4TQSJoYubK7gC0Niv4z6wyaO2Jop9JIjVE8uKcJPa/uQRb64Z2PoFZyAMQN4jgfE98AwfU9fgEsXRx2IrQyhXQaxgteoglqh5ngovRps0C0IqFZ48VQsao09W+fDhSFkBZZlkvCNRjLe71kW4EY6ZhVDPHYL3UPWou4IizfvaiH+cySm9aKfd4YZfDHU6vIwrND7sueQdh+Ybli1wBvKf56puTY63aBpUui7d4ZnggY0wtSsagUGzv6+A5+ED9vUKiFy3H6bcLYDhbkVvraSUjzpxSmnhlDwIbJBb+P2KvJe0lBW2nk0lIBspiYx/sQ3ksSTjij4sLL0OgsbIWnAIfUMLUpAjmTbba3fCGn1Ofl0NkJcZBr+KclaJGRJP/fPM5SIqh2waBUr40RJhW8TbGFLcQwK5JxVSnlRLItoHrfQB1FnYAOgCkdftKw1vSKxXd75yhR8KD08H+oVCd5zT+62HMER7lbcK4bREyZ80JXcintVCRsQ+BC/z2kLVbyiTSYU3GOhWF4HzIkH/JKifGxAJK+nCImi04fryEiNsOzuHcNUOpCez3oxjfYW3upEmrx4SiiAwBUWrimq0vvCKFXg8QJCTV0GZNgGxstvouMDO0+pXG7jirWUOw4942tN8Q3xz2VPTLeE2zNJmetLCi5ri6v5ElNoyzUo97LSqvT57ekKbhURTGg3/hreYKmzGuN8at7vJd4lTVv7kJJabGq7OS7e/H3Tbyknvj4lEesEvw6r+T+WeoEteTY57f362uNJzO1XlYKlX41MXhSaXlr+3N3vlgVnrK/VCBCXbpM7vrl1e/M/Wip/J+I6d/rQ+T7VENkrGjbAFioozW4VYJjMYD6EvDo7LMxebfQF5DOoROkDUKtn9coChvYt6mMAi9EMYxNEjL062Ocg9pSwNUXMHIgXlGp+NcWTxSvMOjkF/CLMzLtbhFYrEDZgy28FRy7y8DRPRNWgzV3zJSwJQrEBvnLPoUKpx03XWnR0wK1lh9jlgWvrHTyUIrekku26oNsQGIgZuig0EGq+PrG7YxXeK/TCvXXfymBBgRd5rSy0DN8mEc7c79x2/JZrno6YZtgbHkx6/fI7x+b0mWn8iGfh/3qc3w3z58G0R8NOTOLbCuf200d2dvlTMW7Bc1xesZ9oEZwyxlz/G4K//vyXcoH5jTfjQFvNw1KqSPF5xbPuv6FW1vFu8y6zDKdXLPjQTjPztJN9k1l2YpZ7j1eO26vqB0T2iQ2vwwfF79Vr8GFdKpj1FnwwNbx6CT7MuopZ78AHO1XSC/DB1fLqDfjgq5nVPz6oel51jw91sOEl+GBqetU5PtTChlfgg50qq2N8cLW96hkffHWz+sUHVd+rbvGhLjZ0jg+mhVed4kNtbOgaH+zUSB3ig2vlVY/44JuZ1R8+qHZedYcPbbChU3wwLb3qDB9aYUOX+GCnxuoIH1xrr3rCB9/crH7wQbX3qht8aIsNneGDkeBVJ/jQGhv+0tWDWdckRB3gwyHFq7rX1JZFdy3GLPmwtU2CJLzXY6dpuNWnV6LdEufVnwAhNMqv1yRQW5DoVdgmkYIdDQPUriep8sJ6PrOfJMsIilyrmYRLS7Hr+wnfIuyyAiJ9sD1Y9TMgeDbtW7tzmfqSP83hquswp5+GhoaGhoaGhoaGhoaGhoaGhoaGhoaGhvrSH55UgXZ9F8ViAAAAAElFTkSuQmCC" vertex="1" parent="1">
          <mxGeometry x="360" y="330" width="21" height="20" as="geometry" />
        </mxCell>
        <mxCell id="7rkVe7Uq90dmdIaCh3Kc-16" value="SQS" style="outlineConnect=0;dashed=0;verticalLabelPosition=bottom;verticalAlign=top;align=center;html=1;shape=mxgraph.aws3.sqs;fillColor=#D9A741;gradientColor=none;fontSize=14;" vertex="1" parent="1">
          <mxGeometry x="670" y="545" width="76.5" height="93" as="geometry" />
        </mxCell>
        <mxCell id="7rkVe7Uq90dmdIaCh3Kc-17" value="car-stock-consumer" style="rounded=1;whiteSpace=wrap;html=1;strokeWidth=3;strokeColor=#66CC00;fontSize=14;" vertex="1" parent="1">
          <mxGeometry x="354" y="577.5" width="156" height="70" as="geometry" />
        </mxCell>
        <mxCell id="7rkVe7Uq90dmdIaCh3Kc-18" value="" style="shape=image;verticalLabelPosition=bottom;verticalAlign=top;imageAspect=0;image=data:image/png,iVBORw0KGgoAAAANSUhEUgAAASwAAAEsCAMAAABOo35HAAAAM1BMVEVHcExtsz9tsz9tsz9tsz9tsz9tsz9tsz9tsz9tsz9tsz9tsz9tsz9tsz9tsz9tsz9tsz9pe8ICAAAAEHRSTlMA3yCfEIBgv0DvzzCPr3BQ96WBdgAACsFJREFUeNrtndm25KYSRCUxCo3//7V237O87LYLFZCRkOgST/3QR1IFkLmZp2loaGhoaGhoaGhoaGhoaGhoaGhoaGhoaGhoaJr8aQ5XXYc5fWdGLae7G8qdSy9OaRvu5gpW92CVWW8RWo14u6RY9WOX7KA+36I0yw32er/FaRfaFrdwC1TYJHp1rbdIrZc8r+wtVnZ41a9bor0S5pa/hUtQlNerdLNWOQThbvE6xEDD3YGkAMTcg1mzkL7z3YVE9KqXtQ+zVgkDguruRGogVob8wIaMofnRz+mn16Pnnsya9cCGTvChF2wQgQ/q7kxqYEMX+OD6M8sNbJCPD31hQ2N8MHeXMgMbhOODujuVGtggGh9cv2a5gQ1y8aFPbGiED+buWmZgg1B8UHfnUgMbROKD698s9w5sOOyvgLJZ5hKxL8AG93fo9ax2VcIHTmw46wGK6R0bbMUGXwUfVK169Uuc2xBU19jgKq/98j1jg6+ceV3H2BCqLyu0/WLD+fGNnFGLGR9M9RDCurrX9IoNt67fD2XFB9bRhhaddtUlNjQyixEf3PvMch1iQzOzuPCBjA2zczPSrHAYRa7sTPhAw4b551SK5ZwxZq3mJ5NpSyxDIw8bzu+mZ5n1j3EvYimy4AMFG+bfNkduK9ms31O+J5WjkoUNTqc8K+O9/85hmnRKgpeEDSot/KWb9d+Woyn13gnChg/J+eM+4XSzDLjDbcVgg00dS0g3awEXJxgfihPO6pMtSDYrwCu/EYENa+yMAIpZBzxUQPFBob0imWXwgVUJwIb42RMUs3aGNOSbY8NDlqGY5RiStmuNDTavrib/z5UjE9m22LA/PJOGDhdDeAXhQ2FhPR1oQoTSxzYTWuJDITYEnVmxcvqGV25B1MIHBYaGaBDMMOvx6Vs7fCjEhis/YeS8/9Gtsxk+OHhwhwz+Reavf3Q0wgeLTi3agcbgFT5s2SbYEG8kD4eZ5oaBhxRyNcEHA87C24qc3dnQDdHUx4a5yKuCecN4mC9siCR8UNis8uhVySRr3K3CLpqqjQ1HmVdFM9Jxtwo7/74uNkSr8hevyqbvozG5EE1dXWwwhV4VrnWI5sTCHrWtiQ2x41O/T+0VhoID26ctxIcybDiLk3lp3NyxoyWmPTYkfHlxkrna44NCNvmUvFr8l7GfV1i1VC1siESspPBX/h2RFKarjT44ZINP6n0QCu2EJkRXBxtIy7MJZkUa4lJn8qJwtEFRHkYJBwcU4zPxoTA2bpSHkWKnh07iGX5siKzYSH0YyawIstSYvCiMjCfpYbSsbNOnkbD4ULq2QZOiLO1bZuhMTwY+FMbFg1ZLiQX3uWqVLsJzzNjw+XPT0zfRrBnaDlPxoXhJpKblVWpIuKDtMBEfSheiBGI+oprloO0wDR+Kl0SexCZNTjYLclVNGj4UP30jzkmRzTLAKcQ0fCheErlSO/7k75mRQw9J+FC8seOgJlZ64W3QHxRbQg5YlPk5ZB1Vzdqh8PAVHwj3yXlqG6CbNWOD1re76whb98gfCoihC3BQ6ys+EB4cyE0AYJYFjjzEaYS2+CSaaENlsxSwp/s0qEjChliNvSubNYMj/BM+UPaDXmTzEQWosXH4AR8sugjO6mZ5cHuJ4wNpzz+9ASDMOpEDD0/j1bQDQeihFWHWTo6ciVWLtIPd0Z+IMMvhzQoTvLYCvpLNrEBza0MnDSlm3WjQikBRgD9xe4dZATruEzPLv8OsD/Dm32HWhkb4j/Bm3mGWh0fjT79NDbPSu+dumJWe6dubtfVj1t3cLIsYu+UI8LdAsxRiPJIDHaqYlQmlH6cHlvuFZiF6sAYwP/5/Y9aH/XAe8RmhC7Nyv/I/O7yypzEZhmg+meXQDyx55r/c2rLrxM5hlqtiVj7g/Hbq3ZU/44cfVv5oFvWo9w00UO3+mia6SooPP2HxsbpSMdfDynR1xuyubB5Zk+eYkrK0hz8REVozhZ9k/VwPiIN/+JlzOR+h4TQSJoYubK7gC0Niv4z6wyaO2Jop9JIjVE8uKcJPa/uQRb64Z2PoFZyAMQN4jgfE98AwfU9fgEsXRx2IrQyhXQaxgteoglqh5ngovRps0C0IqFZ48VQsao09W+fDhSFkBZZlkvCNRjLe71kW4EY6ZhVDPHYL3UPWou4IizfvaiH+cySm9aKfd4YZfDHU6vIwrND7sueQdh+Ybli1wBvKf56puTY63aBpUui7d4ZnggY0wtSsagUGzv6+A5+ED9vUKiFy3H6bcLYDhbkVvraSUjzpxSmnhlDwIbJBb+P2KvJe0lBW2nk0lIBspiYx/sQ3ksSTjij4sLL0OgsbIWnAIfUMLUpAjmTbba3fCGn1Ofl0NkJcZBr+KclaJGRJP/fPM5SIqh2waBUr40RJhW8TbGFLcQwK5JxVSnlRLItoHrfQB1FnYAOgCkdftKw1vSKxXd75yhR8KD08H+oVCd5zT+62HMER7lbcK4bREyZ80JXcintVCRsQ+BC/z2kLVbyiTSYU3GOhWF4HzIkH/JKifGxAJK+nCImi04fryEiNsOzuHcNUOpCez3oxjfYW3upEmrx4SiiAwBUWrimq0vvCKFXg8QJCTV0GZNgGxstvouMDO0+pXG7jirWUOw4942tN8Q3xz2VPTLeE2zNJmetLCi5ri6v5ElNoyzUo97LSqvT57ekKbhURTGg3/hreYKmzGuN8at7vJd4lTVv7kJJabGq7OS7e/H3Tbyknvj4lEesEvw6r+T+WeoEteTY57f362uNJzO1XlYKlX41MXhSaXlr+3N3vlgVnrK/VCBCXbpM7vrl1e/M/Wip/J+I6d/rQ+T7VENkrGjbAFioozW4VYJjMYD6EvDo7LMxebfQF5DOoROkDUKtn9coChvYt6mMAi9EMYxNEjL062Ocg9pSwNUXMHIgXlGp+NcWTxSvMOjkF/CLMzLtbhFYrEDZgy28FRy7y8DRPRNWgzV3zJSwJQrEBvnLPoUKpx03XWnR0wK1lh9jlgWvrHTyUIrekku26oNsQGIgZuig0EGq+PrG7YxXeK/TCvXXfymBBgRd5rSy0DN8mEc7c79x2/JZrno6YZtgbHkx6/fI7x+b0mWn8iGfh/3qc3w3z58G0R8NOTOLbCuf200d2dvlTMW7Bc1xesZ9oEZwyxlz/G4K//vyXcoH5jTfjQFvNw1KqSPF5xbPuv6FW1vFu8y6zDKdXLPjQTjPztJN9k1l2YpZ7j1eO26vqB0T2iQ2vwwfF79Vr8GFdKpj1FnwwNbx6CT7MuopZ78AHO1XSC/DB1fLqDfjgq5nVPz6oel51jw91sOEl+GBqetU5PtTChlfgg50qq2N8cLW96hkffHWz+sUHVd+rbvGhLjZ0jg+mhVed4kNtbOgaH+zUSB3ig2vlVY/44JuZ1R8+qHZedYcPbbChU3wwLb3qDB9aYUOX+GCnxuoIH1xrr3rCB9/crH7wQbX3qht8aIsNneGDkeBVJ/jQGhv+0tWDWdckRB3gwyHFq7rX1JZFdy3GLPmwtU2CJLzXY6dpuNWnV6LdEufVnwAhNMqv1yRQW5DoVdgmkYIdDQPUriep8sJ6PrOfJMsIilyrmYRLS7Hr+wnfIuyyAiJ9sD1Y9TMgeDbtW7tzmfqSP83hquswp5+GhoaGhoaGhoaGhoaGhoaGhoaGhoaGhvrSH55UgXZ9F8ViAAAAAElFTkSuQmCC" vertex="1" parent="1">
          <mxGeometry x="360" y="582.5" width="21" height="20" as="geometry" />
        </mxCell>
        <mxCell id="7rkVe7Uq90dmdIaCh3Kc-19" value="stock-queue" style="outlineConnect=0;dashed=0;verticalLabelPosition=bottom;verticalAlign=top;align=center;html=1;shape=mxgraph.aws3.queue;fillColor=#D9A741;gradientColor=none;fontSize=14;" vertex="1" parent="1">
          <mxGeometry x="673.25" y="660" width="70" height="20" as="geometry" />
        </mxCell>
        <mxCell id="7rkVe7Uq90dmdIaCh3Kc-20" value="" style="html=1;shadow=0;dashed=0;align=center;verticalAlign=middle;shape=mxgraph.arrows2.arrow;dy=0.45;dx=27.5;notch=0;fillColor=#ffe6cc;strokeColor=#d79b00;" vertex="1" parent="1">
          <mxGeometry x="540" y="350" width="100" height="20" as="geometry" />
        </mxCell>
        <mxCell id="7rkVe7Uq90dmdIaCh3Kc-21" value="" style="html=1;shadow=0;dashed=0;align=center;verticalAlign=middle;shape=mxgraph.arrows2.arrow;dy=0.45;dx=27.5;notch=0;fillColor=#ffe6cc;strokeColor=#d79b00;rotation=90;" vertex="1" parent="1">
          <mxGeometry x="382.5" y="240" width="99" height="20" as="geometry" />
        </mxCell>
        <mxCell id="7rkVe7Uq90dmdIaCh3Kc-22" value="" style="html=1;shadow=0;dashed=0;align=center;verticalAlign=middle;shape=mxgraph.arrows2.arrow;dy=0.45;dx=27.5;notch=0;fillColor=#ffe6cc;strokeColor=#d79b00;rotation=90;" vertex="1" parent="1">
          <mxGeometry x="677.25" y="485" width="62" height="20" as="geometry" />
        </mxCell>
        <mxCell id="7rkVe7Uq90dmdIaCh3Kc-23" value="" style="html=1;shadow=0;dashed=0;align=center;verticalAlign=middle;shape=mxgraph.arrows2.arrow;dy=0.45;dx=27.5;notch=0;fillColor=#ffe6cc;strokeColor=#d79b00;rotation=0;" vertex="1" parent="1">
          <mxGeometry x="540" y="602.5" width="100" height="20" as="geometry" />
        </mxCell>
        <mxCell id="7rkVe7Uq90dmdIaCh3Kc-24" value="&lt;font style=&quot;font-size: 10px;&quot;&gt;&lt;span style=&quot;border-color: var(--border-color);&quot;&gt;&lt;b&gt;&lt;font color=&quot;#f58534&quot;&gt;POST&amp;nbsp;&lt;/font&gt;&lt;/b&gt;&lt;/span&gt;&lt;b&gt;/api/sales&lt;/b&gt;&lt;i&gt;&lt;br&gt;placeSalesOrder:&lt;br&gt;{&lt;br&gt;&lt;span style=&quot;&quot;&gt;&lt;span style=&quot;&quot;&gt;&amp;nbsp;&amp;nbsp;&amp;nbsp;&amp;nbsp;&lt;/span&gt;&lt;/span&gt;&quot;carModelId&quot;: 1, // Toyota&lt;br&gt;&lt;span style=&quot;&quot;&gt;&lt;span style=&quot;&quot;&gt;&amp;nbsp;&amp;nbsp;&amp;nbsp;&amp;nbsp;&lt;/span&gt;&lt;/span&gt;&quot;qty&quot;: 3&lt;br&gt;}&lt;br&gt;&lt;/i&gt;&lt;/font&gt;" style="text;html=1;align=left;verticalAlign=middle;resizable=0;points=[];autosize=1;strokeColor=none;fillColor=none;" vertex="1" parent="1">
          <mxGeometry x="450" y="190" width="150" height="100" as="geometry" />
        </mxCell>
        <mxCell id="7rkVe7Uq90dmdIaCh3Kc-28" value="&lt;div style=&quot;&quot;&gt;&lt;b style=&quot;font-size: 10px; background-color: initial; border-color: var(--border-color);&quot;&gt;&lt;font color=&quot;#009900&quot; style=&quot;border-color: var(--border-color);&quot;&gt;GET&lt;/font&gt;&lt;font style=&quot;border-color: var(--border-color);&quot; color=&quot;#f58534&quot;&gt;&amp;nbsp;&lt;/font&gt;&lt;/b&gt;&lt;b style=&quot;font-size: 10px; background-color: initial; border-color: var(--border-color);&quot;&gt;/api/stocks&lt;/b&gt;&lt;/div&gt;" style="text;html=1;align=left;verticalAlign=middle;resizable=0;points=[];autosize=1;strokeColor=none;fillColor=none;" vertex="1" parent="1">
          <mxGeometry x="450" y="420" width="100" height="30" as="geometry" />
        </mxCell>
        <mxCell id="7rkVe7Uq90dmdIaCh3Kc-30" value="" style="html=1;shadow=0;dashed=0;align=center;verticalAlign=middle;shape=mxgraph.arrows2.arrow;dy=0.45;dx=27.5;notch=0;fillColor=#d5e8d4;strokeColor=#82b366;rotation=90;" vertex="1" parent="1">
          <mxGeometry x="364.88" y="480.12" width="134.25" height="20" as="geometry" />
        </mxCell>
        <mxCell id="7rkVe7Uq90dmdIaCh3Kc-31" value="poll" style="text;html=1;align=center;verticalAlign=middle;resizable=0;points=[];autosize=1;strokeColor=none;fillColor=none;" vertex="1" parent="1">
          <mxGeometry x="565" y="570" width="40" height="30" as="geometry" />
        </mxCell>
        <mxCell id="7rkVe7Uq90dmdIaCh3Kc-32" value="publish" style="text;html=1;align=center;verticalAlign=middle;resizable=0;points=[];autosize=1;strokeColor=none;fillColor=none;" vertex="1" parent="1">
          <mxGeometry x="550" y="320" width="60" height="30" as="geometry" />
        </mxCell>
        <mxCell id="7rkVe7Uq90dmdIaCh3Kc-33" value="Subscribing stock-queue to sales-topic&lt;br&gt;(init-localstack.sh)" style="text;html=1;align=center;verticalAlign=middle;resizable=0;points=[];autosize=1;strokeColor=none;fillColor=none;fontSize=10;" vertex="1" parent="1">
          <mxGeometry x="739.25" y="470.12" width="190" height="40" as="geometry" />
        </mxCell>
      </root>
    </mxGraphModel>
  </diagram>
</mxfile>
